<?xml version="1.0" encoding="utf-8"?>
<!-- Generator: Adobe Illustrator 18.1.1, SVG Export Plug-In . SVG Version: 6.00 Build 0)  -->
<svg version="1.1" id="Layer_1" xmlns="http://www.w3.org/2000/svg" xmlns:xlink="http://www.w3.org/1999/xlink" x="0px" y="0px"
	 viewBox="0 0 630 600" enable-background="new 0 0 630 600" xml:space="preserve">
<g>
	<g>
		<rect x="2.7" y="493.2" width="26" height="103.5"/>
		<linearGradient id="SVGID_1_" gradientUnits="userSpaceOnUse" x1="15.6517" y1="434.0509" x2="15.6517" y2="463.5044">
			<stop  offset="0" style="stop-color:#27CCFC"/>
			<stop  offset="0.5" style="stop-color:#2F71E7"/>
			<stop  offset="0.75" style="stop-color:#3816D4"/>
			<stop  offset="1" style="stop-color:#6F1DF1"/>
		</linearGradient>
		<path fill="url(#SVGID_1_)" d="M4.7,459.3c-2.9-2.8-4.4-6.3-4.4-10.5c0-4.2,1.5-7.7,4.4-10.5c2.9-2.8,6.6-4.2,11-4.2
			c4.4,0,8.1,1.4,11,4.2c2.9,2.8,4.4,6.3,4.4,10.5c0,4.2-1.5,7.7-4.4,10.5c-2.9,2.8-6.6,4.2-11,4.2C11.3,463.5,7.6,462.1,4.7,459.3z
			"/>
		<path d="M140.9,503.4c7.5,7.8,11.3,18.7,11.3,32.6v60.7h-26v-57.2c0-8.2-2-14.5-6.1-19c-4.1-4.4-9.7-6.6-16.7-6.6
			c-7.2,0-12.8,2.2-17,6.6c-4.1,4.4-6.2,10.7-6.2,19v57.2h-26V493.2h26v12.9c3.5-4.5,7.9-8,13.3-10.6c5.4-2.6,11.3-3.8,17.7-3.8
			C123.5,491.7,133.4,495.6,140.9,503.4z"/>
		<path d="M263.6,503.4c7.5,7.8,11.3,18.7,11.3,32.6v60.7h-26v-57.2c0-8.2-2-14.5-6.1-19c-4.1-4.4-9.7-6.6-16.7-6.6
			c-7.2,0-12.8,2.2-17,6.6c-4.1,4.4-6.2,10.7-6.2,19v57.2h-26V493.2h26v12.9c3.5-4.5,7.9-8,13.3-10.6c5.4-2.6,11.3-3.8,17.7-3.8
			C246.2,491.7,256.1,495.6,263.6,503.4z"/>
		<path d="M318.6,591.8c-7.9-4.4-14.1-10.7-18.7-18.8c-4.5-8.1-6.8-17.4-6.8-28c0-10.6,2.3-19.9,7-28c4.6-8.1,11-14.4,19-18.8
			c8-4.4,17-6.6,26.9-6.6c9.9,0,18.9,2.2,26.9,6.6c8,4.4,14.4,10.7,19,18.8c4.6,8.1,7,17.4,7,28c0,10.6-2.4,19.9-7.1,28
			c-4.8,8.1-11.2,14.4-19.3,18.8c-8.1,4.4-17.2,6.6-27.2,6.6C335.4,598.5,326.5,596.3,318.6,591.8z M358.6,572.2
			c4.1-2.3,7.5-5.8,9.9-10.4c2.5-4.6,3.7-10.2,3.7-16.8c0-9.8-2.6-17.4-7.7-22.7c-5.1-5.3-11.4-7.9-18.8-7.9
			c-7.4,0-13.6,2.6-18.7,7.9c-5,5.3-7.5,12.9-7.5,22.7c0,9.8,2.4,17.4,7.3,22.7c4.9,5.3,11,7.9,18.5,7.9
			C350,575.7,354.4,574.5,358.6,572.2z"/>
		<path d="M461,572.7l26-79.4h27.7l-38.1,103.5H445l-37.9-103.5H435L461,572.7z"/>
		<path d="M528.8,516.8c4.1-8.1,9.8-14.3,16.9-18.7c7.1-4.4,15.1-6.5,23.9-6.5c7.7,0,14.4,1.6,20.1,4.7c5.8,3.1,10.4,7,13.8,11.8
			v-14.8h26.2v103.5h-26.2v-15.1c-3.3,4.9-8,8.9-13.8,12.1c-5.9,3.2-12.7,4.8-20.3,4.8c-8.7,0-16.6-2.2-23.7-6.7
			c-7.1-4.5-12.7-10.8-16.9-19c-4.1-8.2-6.2-17.5-6.2-28.1C522.6,534.2,524.7,524.9,528.8,516.8z M599.8,528.7
			c-2.5-4.5-5.8-8-10-10.5c-4.2-2.4-8.7-3.6-13.6-3.6c-4.8,0-9.3,1.2-13.4,3.6c-4.1,2.4-7.4,5.8-9.9,10.4c-2.5,4.6-3.8,9.9-3.8,16.2
			c0,6.2,1.3,11.7,3.8,16.4c2.5,4.7,5.9,8.3,10,10.7c4.1,2.5,8.6,3.7,13.3,3.7c4.8,0,9.3-1.2,13.6-3.6c4.2-2.4,7.5-5.9,10-10.5
			c2.5-4.5,3.7-10,3.7-16.4C603.5,538.7,602.3,533.2,599.8,528.7z"/>
	</g>
	<g>
		<linearGradient id="SVGID_2_" gradientUnits="userSpaceOnUse" x1="125.2356" y1="58.2948" x2="363.7347" y2="398.9069">
			<stop  offset="0" style="stop-color:#1C0856"/>
			<stop  offset="0.2376" style="stop-color:#352AD5"/>
			<stop  offset="0.3076" style="stop-color:#333DDB"/>
			<stop  offset="0.38" style="stop-color:#324ADF"/>
			<stop  offset="0.45" style="stop-color:#324EE0"/>
			<stop  offset="0.4739" style="stop-color:#304BD7"/>
			<stop  offset="0.513" style="stop-color:#2A44BF"/>
			<stop  offset="0.562" style="stop-color:#213897"/>
			<stop  offset="0.6" style="stop-color:#182E74"/>
			<stop  offset="0.621" style="stop-color:#1D408F"/>
			<stop  offset="0.6556" style="stop-color:#245AB7"/>
			<stop  offset="0.6831" style="stop-color:#286ACF"/>
			<stop  offset="0.7" style="stop-color:#2A70D8"/>
			<stop  offset="0.7324" style="stop-color:#286DCF"/>
			<stop  offset="0.7852" style="stop-color:#2264B7"/>
			<stop  offset="0.8514" style="stop-color:#1A568F"/>
			<stop  offset="0.9" style="stop-color:#124A6E"/>
		</linearGradient>
		<path fill="url(#SVGID_2_)" d="M78,155.8c60.4,1.6,89.8,29.9,114.4,58.8s16.5,10.3,70.3,99.2c53.7,88.7,104.5,71.6,121.3,66.9
			c25-7,65.1-48.6,65.1-48.6s-45.1,10.5-75.6,5.8c-30.4-4.7-43.6-19.9-52.5-31.5c-8.9-11.5-28.9-42-64.6-101.8
			c-38.3-64.3-60.9-87.4-80.6-100c-20.4-13.1-68.2-36.2-104.7-8.4C45.6,115.7,39.2,154.7,78,155.8z"/>
		<linearGradient id="SVGID_3_" gradientUnits="userSpaceOnUse" x1="62.6096" y1="64.1322" x2="517.4664" y2="229.6865">
			<stop  offset="0" style="stop-color:#6F1DF1"/>
			<stop  offset="5.462867e-002" style="stop-color:#5D1BE8"/>
			<stop  offset="0.138" style="stop-color:#4918DD"/>
			<stop  offset="0.2205" style="stop-color:#3C17D6"/>
			<stop  offset="0.3" style="stop-color:#3816D4"/>
			<stop  offset="0.7" style="stop-color:#2F71E7"/>
			<stop  offset="0.709" style="stop-color:#2F75E8"/>
			<stop  offset="0.7952" style="stop-color:#2B9BF1"/>
			<stop  offset="0.8752" style="stop-color:#29B6F7"/>
			<stop  offset="0.9459" style="stop-color:#28C6FB"/>
			<stop  offset="1" style="stop-color:#27CCFC"/>
		</linearGradient>
		<path fill="url(#SVGID_3_)" d="M150.8,91.6c-32.2-15.4-80.7-14-107.4,30.9c-27.6,46.4-10.5,93.1,3.8,122.8
			c10.6,22,52.1,71,121.8,65.4S316.7,251.7,390.9,189S513,79.1,535.7,84c22.7,4.9,27.6,16.4,27.6,16.4s23.1-37.8-2.4-65.8
			s-57.4-31.5-88.5-4.2s-103.6,100.8-134.7,134S258.3,265.3,177.1,281c-92.7,18-104.8-45-107.4-73.5
			C64.8,154.9,107.1,98.2,150.8,91.6z"/>
		<linearGradient id="SVGID_4_" gradientUnits="userSpaceOnUse" x1="297.736" y1="184.3319" x2="591.5817" y2="210.0401">
			<stop  offset="0" style="stop-color:#3715D3"/>
			<stop  offset="0.6" style="stop-color:#3063E4"/>
			<stop  offset="0.6951" style="stop-color:#2D83EB"/>
			<stop  offset="0.8285" style="stop-color:#2AABF4"/>
			<stop  offset="0.9348" style="stop-color:#28C3FA"/>
			<stop  offset="1" style="stop-color:#27CCFC"/>
		</linearGradient>
		<path fill="url(#SVGID_4_)" d="M494.4,16.3c0,0,43.4-27.5,75.5-7.5S611.3,66,594,137.9s-56.2,144.3-120.2,203.1
			S365.7,396.7,343.1,392c-22.6-4.7-35.2-14.2-59.3-48.3c0,0,57.2,19.9,106.6-16.8s102-130.3,116-168
			c13.6-36.7,29.9-69.8,25.2-109.2C526.8,10.4,494.4,16.3,494.4,16.3z"/>
	</g>
</g>
</svg>
